{
  "accessors": [
    {
      "bufferView": 2,
      "componentType": 5126,
      "count": 6749,
      "max": [
        0.24339300394058228,
        0.12994599342346191,
        0.9026780128479004
      ],
      "min": [
        -0.24339300394058228,
        -0.1444779932498932,
        0.0008030980243347585
      ],
      "type": "VEC3"
    },
    {
      "bufferView": 2,
      "byteOffset": 80988,
      "componentType": 5126,
      "count": 6749,
      "max": [
        0.9999402165412903,
        0.999909520149231,
        0.9999960064888
      ],
      "min": [
        -0.9999342560768127,
        -0.9999971389770508,
        -0.9997626543045044
      ],
      "type": "VEC3"
    },
    {
      "bufferView": 1,
      "componentType": 5126,
      "count": 6749,
      "max": [
        0.9965819716453552,
        0.9956049919128418
      ],
      "min": [
        0.002899169921875,
        0.006198879797011614
      ],
      "type": "VEC2"
    },
    {
      "bufferView": 0,
      "componentType": 5125,
      "count": 28944,
      "type": "SCALAR"
    },
    {
      "bufferView": 2,
      "byteOffset": 161976,
      "componentType": 5126,
      "count": 175,
      "max": [
        0.1278350055217743,
        0.09009099751710892,
        0.3586440086364746
      ],
      "min": [
        -0.08793780207633972,
        -0.07615689933300018,
        0.2094220072031021
      ],
      "type": "VEC3"
    },
    {
      "bufferView": 2,
      "byteOffset": 164076,
      "componentType": 5126,
      "count": 175,
      "max": [
        0.936312735080719,
        0.9382078647613525,
        0.999684751033783
      ],
      "min": [
        -0.9791805148124695,
        -0.9995965361595154,
        -0.9995317459106445
      ],
      "type": "VEC3"
    },
    {
      "bufferView": 1,
      "byteOffset": 53992,
      "componentType": 5126,
      "count": 175,
      "max": [
        0.9653930068016052,
        0.9951170086860657
      ],
      "min": [
        0.00585938012227416,
        0.2604979872703552
      ],
      "type": "VEC2"
    },
    {
      "bufferView": 0,
      "byteOffset": 115776,
      "componentType": 5125,
      "count": 621,
      "type": "SCALAR"
    }
  ],
  "asset": {
    "extras": {
      "author": "9A Films / Nihar Arora (https://sketchfab.com/Nihar-9Afilms)",
      "license": "CC-BY-4.0 (http://creativecommons.org/licenses/by/4.0/)",
      "source": "https://sketchfab.com/3d-models/baby-groot-re-edited-textures-5c1aff4641e543d9926b6016e0e3fd42",
      "title": "Baby Groot | Re-Edited Textures"
    },
    "generator": "Sketchfab-14.79.0",
    "version": "2.0"
  },
  "bufferViews": [
    {
      "buffer": 0,
      "byteLength": 118260,
      "name": "floatBufferViews",
      "target": 34963
    },
    {
      "buffer": 0,
      "byteLength": 55392,
      "byteOffset": 118260,
      "byteStride": 8,
      "name": "floatBufferViews",
      "target": 34962
    },
    {
      "buffer": 0,
      "byteLength": 166176,
      "byteOffset": 173652,
      "byteStride": 12,
      "name": "floatBufferViews",
      "target": 34962
    }
  ],
  "buffers": [
    {
      "byteLength": 339828,
      "uri": "scene.bin"
    }
  ],
  "images": [
    {
      "uri": "textures/1001_baseColor.png"
    },
    {
      "uri": "textures/1001_metallicRoughness.png"
    }
  ],
  "materials": [
    {
      "doubleSided": true,
      "name": "1001",
      "pbrMetallicRoughness": {
        "baseColorTexture": {
          "index": 0
        },
        "metallicRoughnessTexture": {
          "index": 1
        }
      }
    },
    {
      "doubleSided": true,
      "name": "1000",
      "pbrMetallicRoughness": {
        "baseColorTexture": {
          "index": 0
        },
        "metallicFactor": 0.0,
        "roughnessFactor": 0.8486386452543314
      }
    }
  ],
  "meshes": [
    {
      "name": "Groot_1001_0",
      "primitives": [
        {
          "attributes": {
            "NORMAL": 1,
            "POSITION": 0,
            "TEXCOORD_0": 2
          },
          "indices": 3,
          "material": 0,
          "mode": 4
        }
      ]
    },
    {
      "name": "Groot_1000_0",
      "primitives": [
        {
          "attributes": {
            "NORMAL": 5,
            "POSITION": 4,
            "TEXCOORD_0": 6
          },
          "indices": 7,
          "material": 1,
          "mode": 4
        }
      ]
    }
  ],
  "nodes": [
    {
      "children": [
        1
      ],
      "matrix": [
        1.0,
        0.0,
        0.0,
        0.0,
        0.0,
        2.220446049250313e-16,
        -1.0,
        0.0,
        0.0,
        1.0,
        2.220446049250313e-16,
        0.0,
        0.0,
        0.0,
        0.0,
        1.0
      ],
      "name": "Sketchfab_model"
    },
    {
      "children": [
        2
      ],
      "matrix": [
        0.0010000000474974513,
        0.0,
        0.0,
        0.0,
        0.0,
        0.0,
        0.0010000000474974513,
        0.0,
        0.0,
        -0.0010000000474974513,
        0.0,
        0.0,
        0.0,
        0.0,
        0.0,
        1.0
      ],
      "name": "bd4f0769790b4e3ebc583fc7abda8d55.fbx"
    },
    {
      "children": [
        3
      ],
      "name": "RootNode"
    },
    {
      "children": [
        4,
        5
      ],
      "matrix": [
        17.68149757385254,
        0.0,
        0.0,
        0.0,
        0.0,
        3.926081143268987e-15,
        -17.68149757385254,
        0.0,
        0.0,
        17.68149757385254,
        3.926081143268987e-15,
        0.0,
        0.0,
        0.0,
        0.0,
        1.0
      ],
      "name": "Groot"
    },
    {
      "mesh": 0,
      "name": "Groot_1001_0"
    },
    {
      "mesh": 1,
      "name": "Groot_1000_0"
    }
  ],
  "samplers": [
    {
      "magFilter": 9729,
      "minFilter": 9987,
      "wrapS": 10497,
      "wrapT": 10497
    }
  ],
  "scene": 0,
  "scenes": [
    {
      "name": "Sketchfab_Scene",
      "nodes": [
        0
      ]
    }
  ],
  "textures": [
    {
      "sampler": 0,
      "source": 0
    },
    {
      "sampler": 0,
      "source": 1
    }
  ]
}
